<svg xmlns="http://www.w3.org/2000/svg" viewBox="0 0 624.08 601"><defs><style>.cls-1{fill:#cccdce;}.cls-2{fill:#4b878b;}.cls-3{fill:#d01c1f;}</style></defs><g id="Capa_2" data-name="Capa 2"><g id="Capa_1-2" data-name="Capa 1"><circle class="cls-1" cx="305.04" cy="300.5" r="300.5"/><path class="cls-2" d="M192.37,209.7a3.5,3.5,0,0,0-3.44,3.56v64.53a3.51,3.51,0,0,0,3.44,3.56H261a3.5,3.5,0,0,1,3.44,3.56v23.14a3.51,3.51,0,0,1-3.44,3.56H192.37a3.5,3.5,0,0,0-3.44,3.56v72.36a3.51,3.51,0,0,0,3.44,3.56h23a3.5,3.5,0,0,1,3.45,3.56v23.14a3.51,3.51,0,0,1-3.45,3.56h-88a3.51,3.51,0,0,1-3.44-3.56V394.65a3.5,3.5,0,0,1,3.44-3.56h22.71a3.51,3.51,0,0,0,3.45-3.56V213.26a3.5,3.5,0,0,0-3.45-3.56H127.45a3.52,3.52,0,0,1-3.44-3.56V183a3.5,3.5,0,0,1,3.44-3.56h178V209.7"/><path class="cls-3" d="M321.73,391.09V209.7H293V179.44h77.88q32.13,0,48.19,4t28.34,20.26q12.27,16.26,12.28,38.17a63.08,63.08,0,0,1-7.32,30.44,47.7,47.7,0,0,1-21.44,20.52q19.5,7,30,23t10.51,36.78a67.82,67.82,0,0,1-7.82,32.52,58.11,58.11,0,0,1-20.77,22.61,80.56,80.56,0,0,1-28.34,10.78q-15.39,2.79-42,2.79H296.41a3.51,3.51,0,0,1-3.45-3.56V394.65a3.51,3.51,0,0,1,3.45-3.56Zm35.32-114.52a3.5,3.5,0,0,0,3.44,3.56h18.59q25.23,0,35.24-9.13t10-26.87q0-34.42-45.25-34.43H360.49a3.5,3.5,0,0,0-3.44,3.56Zm0,111a3.51,3.51,0,0,0,3.44,3.56h9.84q26.07,0,38.19-2.7a33.33,33.33,0,0,0,19.76-12.69q7.65-10,7.65-25.66,0-14.25-7.32-23.91a34.83,34.83,0,0,0-18.83-12.87q-11.52-3.21-32.55-3.22H360.49a3.51,3.51,0,0,0-3.44,3.57Z"/><path class="cls-2" d="M562.78,250.46l37.84,48.44a3.4,3.4,0,0,0,2.68,1.32h17.33a3.57,3.57,0,0,0,2.67-5.8L585.47,246a3.43,3.43,0,0,0-2.68-1.32H565.46A3.58,3.58,0,0,0,562.78,250.46Z"/><path class="cls-2" d="M623.3,300.32l-37.83,48.44a3.41,3.41,0,0,1-2.68,1.33H565.46a3.58,3.58,0,0,1-2.68-5.8l37.84-48.44a3.41,3.41,0,0,1,2.68-1.33h17.33A3.57,3.57,0,0,1,623.3,300.32Z"/><path class="cls-3" d="M61.29,247.61,23.45,296.05a3.37,3.37,0,0,1-2.68,1.32H3.45a3.58,3.58,0,0,1-2.68-5.8l37.84-48.43a3.4,3.4,0,0,1,2.68-1.33H58.61A3.57,3.57,0,0,1,61.29,247.61Z"/><path class="cls-3" d="M.77,297.48l37.84,48.43a3.4,3.4,0,0,0,2.68,1.33H58.61a3.57,3.57,0,0,0,2.68-5.8L23.45,293a3.37,3.37,0,0,0-2.68-1.32H3.45A3.58,3.58,0,0,0,.77,297.48Z"/><path class="cls-2" d="M533.8,229.52,501.47,342.09c-.78,2.73,0,5.65,1.89,6.58l13.47,6.82c1.93,1,4.2-.6,5-3.47L553.4,240.73c.73-2.59,0-5.35-1.65-6.42l-12.7-8.09C537.11,225,534.66,226.52,533.8,229.52Z"/></g></g></svg>