<svg xmlns="http://www.w3.org/2000/svg" viewBox="0 0 609.08 241.91"><defs><style>.cls-1{fill:#4b878b;}.cls-2{fill:#d01c1f;}</style></defs><g id="Capa_2" data-name="Capa 2"><g id="Capa_1-2" data-name="Capa 1"><path class="cls-1" d="M192.37,30.26a3.51,3.51,0,0,0-3.44,3.56V98.35a3.5,3.5,0,0,0,3.44,3.56H261a3.51,3.51,0,0,1,3.44,3.56v23.14a3.5,3.5,0,0,1-3.44,3.56H192.37a3.51,3.51,0,0,0-3.44,3.56v72.36a3.5,3.5,0,0,0,3.44,3.56h23a3.5,3.5,0,0,1,3.45,3.56v23.14a3.5,3.5,0,0,1-3.45,3.56h-88a3.5,3.5,0,0,1-3.44-3.56V215.21a3.5,3.5,0,0,1,3.44-3.56h22.71a3.5,3.5,0,0,0,3.45-3.56V33.82a3.51,3.51,0,0,0-3.45-3.56H127.45A3.51,3.51,0,0,1,124,26.7V3.56A3.5,3.5,0,0,1,127.45,0h178V30.26"/><path class="cls-2" d="M333.73,211.65V30.26H305V0h77.88Q415,0,431,4t28.34,20.26q12.27,16.26,12.28,38.17a63,63,0,0,1-7.32,30.44,47.7,47.7,0,0,1-21.44,20.52q19.5,7,30,23t10.51,36.79a67.85,67.85,0,0,1-7.82,32.52,58.18,58.18,0,0,1-20.77,22.61,81,81,0,0,1-28.34,10.78q-15.39,2.77-42,2.78H308.41a3.51,3.51,0,0,1-3.45-3.56V215.21a3.51,3.51,0,0,1,3.45-3.56ZM369.05,97.13a3.5,3.5,0,0,0,3.44,3.56h18.59q25.23,0,35.24-9.13t10-26.87q0-34.42-45.25-34.43H372.49a3.51,3.51,0,0,0-3.44,3.56Zm0,111a3.5,3.5,0,0,0,3.44,3.56h9.84q26.07,0,38.19-2.7a33.29,33.29,0,0,0,19.76-12.69q7.65-10,7.65-25.65,0-14.27-7.32-23.92a34.83,34.83,0,0,0-18.83-12.87q-11.52-3.21-32.55-3.21H372.49a3.5,3.5,0,0,0-3.44,3.56Z"/><path class="cls-1" d="M547.78,71l37.84,48.44a3.41,3.41,0,0,0,2.68,1.33h17.33a3.57,3.57,0,0,0,2.67-5.8L570.47,66.55a3.41,3.41,0,0,0-2.68-1.33H550.46A3.58,3.58,0,0,0,547.78,71Z"/><path class="cls-1" d="M608.3,120.89l-37.83,48.44a3.43,3.43,0,0,1-2.68,1.32H550.46a3.58,3.58,0,0,1-2.68-5.8l37.84-48.44a3.4,3.4,0,0,1,2.68-1.32h17.33A3.57,3.57,0,0,1,608.3,120.89Z"/><path class="cls-2" d="M61.29,68.17,23.45,116.61a3.38,3.38,0,0,1-2.68,1.33H3.45a3.58,3.58,0,0,1-2.68-5.8L38.61,63.7a3.4,3.4,0,0,1,2.68-1.33H58.61A3.57,3.57,0,0,1,61.29,68.17Z"/><path class="cls-2" d="M.77,118l37.84,48.44a3.42,3.42,0,0,0,2.68,1.32H58.61a3.57,3.57,0,0,0,2.68-5.8L23.45,113.56a3.4,3.4,0,0,0-2.68-1.32H3.45A3.58,3.58,0,0,0,.77,118Z"/><path class="cls-1" d="M523.18,76.93l-15.75,77.51a3.56,3.56,0,0,0,2.56,4.2L523.25,162a3.45,3.45,0,0,0,4.19-2.75l15.19-76.6a3.57,3.57,0,0,0-2.32-4.11L527.6,74.27A3.43,3.43,0,0,0,523.18,76.93Z"/></g></g></svg>